<svg xmlns="http://www.w3.org/2000/svg" xmlns:xlink="http://www.w3.org/1999/xlink" width="500" zoomAndPan="magnify" viewBox="0 0 375 374.999991" height="500" preserveAspectRatio="xMidYMid meet" version="1.0"><defs><clipPath id="636d3806c1"><path d="M 1.820312 89.839844 L 373.070312 89.839844 L 373.070312 287.003906 L 1.820312 287.003906 Z M 1.820312 89.839844 " clip-rule="nonzero"/></clipPath></defs><g clip-path="url(#636d3806c1)"><path fill="#503530" d="M 113.316406 210.003906 C 106.785156 216.953125 100.910156 233.574219 108.578125 236.5625 C 115.777344 233.34375 116.191406 216.828125 113.316406 210.003906 Z M 136.65625 190.488281 C 138.949219 190.296875 181.632812 159.601562 193.726562 133.976562 C 203.738281 112.761719 185.621094 80.167969 154.441406 123 C 146.046875 134.53125 143.070312 144.871094 139.804688 157.515625 C 137.527344 158.953125 135.199219 157.78125 135.0625 154.917969 C 134.523438 143.488281 136.960938 140.664062 136.882812 138.84375 C 136.179688 122.835938 135 100.738281 121.226562 94.070312 C 107.847656 87.585938 105.226562 111.003906 107.59375 125.765625 C 110.863281 146.171875 125.636719 173.117188 136.65625 190.488281 Z M 112.652344 207.410156 C 112.640625 205.847656 105.238281 178.070312 70.082031 171.617188 C 41.066406 166.289062 17.660156 184.558594 11.160156 211.976562 C 1.015625 254.773438 37.878906 285.464844 73.917969 280.949219 C 110.773438 276.328125 172.769531 235.949219 173.257812 234.199219 C 157.511719 223.945312 143.40625 211.835938 132.582031 196.191406 C 127.609375 198.953125 122.886719 201.808594 118.507812 205.25 C 128.902344 240.636719 102.109375 245.191406 101.792969 232.207031 C 101.449219 218.136719 112.230469 208.257812 112.652344 207.410156 Z M 184.304688 234.265625 C 184.429688 234.6875 263.398438 294.550781 318.878906 282.464844 C 358.398438 273.859375 373.421875 234.714844 363.488281 203.351562 C 338.507812 124.460938 253.675781 188.78125 228 205.132812 C 214.410156 213.789062 184.582031 233.71875 184.304688 234.265625 Z M 117.855469 202.929688 C 129.46875 193.75 131.910156 195.234375 130.71875 193.382812 C 120.832031 178.042969 105.691406 149.800781 101.207031 133.269531 C 96.777344 116.953125 97.574219 91.855469 113.933594 89.996094 C 126.972656 88.515625 136.140625 97.773438 138.90625 110.460938 C 140.285156 116.785156 141.078125 123.992188 141.320312 129.445312 C 143.304688 128.335938 157.164062 95.394531 185.066406 97.285156 C 209.011719 98.90625 209.769531 127.621094 190.265625 150.074219 C 168.382812 175.257812 138.707031 192.394531 138.394531 192.765625 C 138.378906 193.476562 144.761719 202.242188 152.226562 209.398438 C 160.5625 217.390625 169.15625 224.476562 178.578125 230.660156 C 180.339844 230.15625 233.210938 190.292969 274.148438 169.644531 C 322.289062 145.355469 362.558594 169.890625 371.222656 203.808594 C 381.398438 243.613281 351.464844 294.585938 289.285156 286.398438 C 262.886719 282.921875 245.203125 279.371094 178.882812 237.835938 C 147.070312 259.027344 92.039062 290.550781 54.320312 283.949219 C -18.800781 271.160156 -11.453125 180.167969 51.113281 168.226562 C 67.34375 165.128906 91.621094 170.5625 105.679688 184.46875 C 115.25 193.9375 116.851562 201.878906 117.855469 202.929688 " fill-opacity="1" fill-rule="nonzero"/></g><path stroke-linecap="butt" transform="matrix(0.62304, -0.417518, 0.417518, 0.62304, 202.15149, 216.0819)" fill="none" stroke-linejoin="miter" d="M 0.00183574 2.001464 L 71.444252 2.002097 " stroke="#503530" stroke-width="4" stroke-opacity="1" stroke-miterlimit="4"/></svg>