<svg xmlns="http://www.w3.org/2000/svg" xmlns:xlink="http://www.w3.org/1999/xlink" width="70" zoomAndPan="magnify" viewBox="0 0 263.25 130.499996" height="35" preserveAspectRatio="xMidYMid meet" version="1.0"><defs><g/><clipPath id="c762b8f61e"><path d="M 5.609375 32.988281 L 256.640625 32.988281 L 256.640625 129.941406 L 5.609375 129.941406 Z M 5.609375 32.988281 " clip-rule="nonzero"/></clipPath><clipPath id="a3796e9cf9"><path d="M 59.390625 1.046875 L 202.84375 1.046875 L 202.84375 64.925781 L 59.390625 64.925781 Z M 59.390625 1.046875 " clip-rule="nonzero"/></clipPath></defs><g clip-path="url(#c762b8f61e)"><path stroke-linecap="butt" transform="matrix(0.747137, 0, 0, 0.747137, 5.610878, 32.988668)" fill="none" stroke-linejoin="miter" d="M -0.00201122 -0.000517217 L 336.00446 -0.000517217 L 336.00446 129.765624 L -0.00201122 129.765624 Z M -0.00201122 -0.000517217 " stroke="#503550" stroke-width="4" stroke-opacity="1" stroke-miterlimit="4"/></g><path fill="#503550" d="M 145.414062 18.953125 C 145.640625 18.960938 145.851562 19.105469 145.953125 19.308594 C 146.03125 19.46875 146.28125 19.480469 146.394531 19.351562 C 146.546875 19.179688 146.433594 18.886719 146.238281 18.769531 C 146.039062 18.652344 145.792969 18.664062 145.5625 18.683594 C 145.128906 18.714844 144.644531 18.785156 144.371094 19.121094 C 144.722656 19.105469 145.078125 19.054688 145.414062 18.953125 Z M 145.414062 18.953125 " fill-opacity="1" fill-rule="nonzero"/><path fill="#503550" d="M 145.226562 20.742188 C 144.847656 21.070312 144.230469 20.960938 143.832031 21.261719 C 144.488281 21.304688 145.164062 21.136719 145.730469 20.789062 C 145.832031 20.726562 145.9375 20.652344 145.992188 20.546875 C 146.0625 20.402344 146.007812 20.199219 145.863281 20.121094 C 145.71875 20.050781 145.511719 20.136719 145.480469 20.296875 C 145.453125 20.46875 145.359375 20.628906 145.226562 20.742188 Z M 145.226562 20.742188 " fill-opacity="1" fill-rule="nonzero"/><path fill="#503550" d="M 142.546875 21.402344 C 142.425781 21.339844 142.269531 21.402344 142.175781 21.5 C 142.078125 21.59375 142.007812 21.714844 141.910156 21.804688 C 141.585938 22.105469 141.023438 22.019531 140.710938 22.328125 C 141.230469 22.355469 141.757812 22.273438 142.238281 22.082031 C 142.386719 22.023438 142.535156 21.949219 142.621094 21.816406 C 142.703125 21.679688 142.683594 21.472656 142.546875 21.402344 Z M 142.546875 21.402344 " fill-opacity="1" fill-rule="nonzero"/><path fill="#503550" d="M 140.042969 20.621094 C 140.082031 20.601562 140.097656 20.558594 140.113281 20.515625 C 140.257812 20.152344 140.527344 19.832031 140.867188 19.625 C 140.792969 19.476562 140.597656 19.425781 140.4375 19.476562 C 140.277344 19.53125 140.164062 19.664062 140.082031 19.804688 C 139.976562 19.980469 139.902344 20.179688 139.878906 20.382812 C 139.859375 20.503906 139.9375 20.679688 140.042969 20.621094 Z M 140.042969 20.621094 " fill-opacity="1" fill-rule="nonzero"/><path fill="#503550" d="M 140.566406 21.007812 C 140.789062 20.882812 141.011719 20.757812 141.238281 20.636719 C 141.34375 20.578125 141.3125 20.394531 141.207031 20.332031 C 141.101562 20.269531 140.96875 20.300781 140.855469 20.351562 C 140.621094 20.457031 140.433594 20.660156 140.335938 20.902344 C 140.328125 20.925781 140.316406 20.953125 140.320312 20.984375 C 140.339844 21.078125 140.484375 21.054688 140.566406 21.007812 Z M 140.566406 21.007812 " fill-opacity="1" fill-rule="nonzero"/><path fill="#503550" d="M 141.035156 17.8125 C 140.878906 17.964844 140.726562 18.113281 140.570312 18.269531 C 140.496094 18.347656 140.582031 18.492188 140.691406 18.5 C 140.796875 18.507812 140.894531 18.429688 140.960938 18.339844 C 141.03125 18.253906 141.082031 18.160156 141.175781 18.097656 C 141.332031 17.996094 141.605469 17.988281 141.621094 17.800781 C 141.632812 17.671875 141.476562 17.585938 141.351562 17.605469 C 141.226562 17.628906 141.125 17.726562 141.035156 17.8125 Z M 141.035156 17.8125 " fill-opacity="1" fill-rule="nonzero"/><path fill="#503550" d="M 143.132812 15.839844 C 143.113281 15.734375 142.988281 15.675781 142.882812 15.695312 C 142.777344 15.707031 142.683594 15.78125 142.601562 15.847656 C 142.402344 16.015625 142.214844 16.195312 142.035156 16.386719 C 142.101562 16.480469 142.242188 16.460938 142.339844 16.398438 C 142.429688 16.335938 142.503906 16.242188 142.597656 16.191406 C 142.703125 16.132812 142.824219 16.132812 142.933594 16.09375 C 143.046875 16.054688 143.15625 15.953125 143.132812 15.839844 Z M 143.132812 15.839844 " fill-opacity="1" fill-rule="nonzero"/><path fill="#503550" d="M 143.941406 18.632812 C 143.894531 18.5625 143.789062 18.5625 143.699219 18.578125 C 143.300781 18.644531 142.925781 18.867188 142.679688 19.191406 C 142.785156 19.273438 142.945312 19.226562 143.050781 19.148438 C 143.160156 19.074219 143.257812 18.96875 143.386719 18.929688 C 143.511719 18.894531 143.644531 18.929688 143.769531 18.902344 C 143.894531 18.878906 144.011719 18.734375 143.941406 18.632812 Z M 143.941406 18.632812 " fill-opacity="1" fill-rule="nonzero"/><path fill="#503550" d="M 140.320312 21.636719 C 140.347656 21.730469 140.453125 21.773438 140.542969 21.796875 C 140.871094 21.882812 141.289062 21.921875 141.492188 21.648438 C 141.414062 21.46875 141.164062 21.480469 140.972656 21.511719 C 140.753906 21.554688 140.539062 21.597656 140.320312 21.636719 Z M 140.320312 21.636719 " fill-opacity="1" fill-rule="nonzero"/><path fill="#503550" d="M 141.046875 21.042969 C 141.046875 21.132812 141.175781 21.152344 141.265625 21.140625 C 141.59375 21.105469 141.917969 21.070312 142.246094 21.03125 C 142.296875 21.027344 142.359375 21.007812 142.363281 20.953125 C 142.363281 20.929688 142.347656 20.910156 142.332031 20.898438 C 142.175781 20.714844 141.890625 20.753906 141.65625 20.808594 C 141.507812 20.84375 141.351562 20.882812 141.203125 20.917969 C 141.136719 20.933594 141.054688 20.96875 141.046875 21.042969 Z M 141.046875 21.042969 " fill-opacity="1" fill-rule="nonzero"/><path fill="#503550" d="M 147.335938 13.757812 C 147.257812 13.785156 147.175781 13.808594 147.121094 13.871094 C 147.070312 13.933594 147.074219 14.042969 147.152344 14.078125 C 147.199219 14.097656 147.246094 14.078125 147.296875 14.058594 C 147.542969 13.957031 147.777344 13.820312 148.039062 13.785156 C 148.296875 13.746094 148.601562 13.832031 148.71875 14.066406 C 148.945312 14.0625 149.097656 13.75 148.957031 13.570312 C 148.808594 13.378906 148.515625 13.425781 148.28125 13.496094 C 147.964844 13.582031 147.648438 13.671875 147.335938 13.757812 Z M 147.335938 13.757812 " fill-opacity="1" fill-rule="nonzero"/><g clip-path="url(#a3796e9cf9)"><path fill="#503550" d="M 162.476562 40.445312 C 168.175781 38.617188 173.070312 34.402344 175.726562 29.035156 C 178.378906 23.667969 178.757812 17.21875 176.757812 11.578125 C 177.109375 13.921875 176.265625 16.410156 174.566406 18.0625 C 172.761719 19.820312 171.699219 22.320312 171.691406 24.839844 C 171.6875 26.53125 172.136719 28.207031 172.082031 29.902344 C 171.9375 34.542969 167.972656 38.355469 163.570312 39.828125 C 159.164062 41.300781 154.390625 40.929688 149.765625 40.542969 C 153.492188 39.550781 156.863281 37.304688 159.21875 34.253906 C 153.378906 41.261719 141.425781 41.894531 134.878906 35.542969 C 131.441406 32.207031 125.847656 33.921875 121.066406 34.191406 C 116.746094 34.4375 112.359375 33.242188 108.753906 30.851562 C 117.632812 31.308594 126.628906 29.371094 134.535156 25.300781 C 136.179688 26.863281 136.742188 29.464844 135.890625 31.566406 C 138.691406 31.691406 141.523438 30.492188 143.386719 28.398438 C 144.15625 30.648438 146.402344 32.308594 148.773438 32.390625 C 150.476562 32.453125 152.28125 31.644531 153.058594 30.125 C 153.828125 28.601562 153.210938 26.421875 151.613281 25.824219 C 153.691406 24.894531 155.765625 23.960938 157.847656 23.035156 C 158.648438 22.671875 159.496094 22.277344 159.996094 21.546875 C 161.132812 19.875 159.722656 17.519531 157.910156 16.636719 C 156.089844 15.75 153.972656 15.734375 152.082031 15.019531 C 152.925781 13.507812 153.792969 11.953125 154.003906 10.234375 C 154.222656 8.519531 153.628906 6.582031 152.144531 5.699219 C 149.773438 4.292969 146.863281 6.148438 144.75 7.910156 C 143.191406 7.117188 142.429688 5.359375 141.453125 3.910156 C 140.472656 2.457031 138.714844 1.121094 137.097656 1.800781 C 135.882812 2.308594 135.363281 3.710938 134.96875 4.960938 C 134.589844 6.179688 134.203125 7.394531 133.824219 8.609375 C 131.933594 7.839844 129.636719 9.253906 129.027344 11.207031 C 128.414062 13.15625 129.179688 15.332031 130.503906 16.890625 C 131.828125 18.453125 133.632812 19.507812 135.417969 20.503906 C 134.84375 23.480469 132.4375 25.84375 129.703125 27.152344 C 126.972656 28.460938 123.90625 28.886719 120.902344 29.296875 C 123.835938 26.179688 125.410156 21.824219 125.152344 17.558594 C 124.636719 22.070312 123.59375 27.351562 119.460938 29.246094 C 118.167969 29.839844 116.71875 30.003906 115.300781 30.128906 C 107.714844 30.800781 100.054688 30.675781 92.496094 29.761719 C 101.328125 26.414062 108.976562 20.039062 113.871094 11.960938 C 107.515625 13.289062 100.46875 15.082031 97.046875 20.597656 C 95.925781 22.40625 95.296875 24.488281 94.199219 26.3125 C 93.097656 28.136719 91.296875 29.773438 89.167969 29.78125 C 79.222656 29.816406 69.273438 30.507812 59.414062 31.855469 C 63.953125 31.6875 68.488281 31.519531 73.027344 31.351562 C 74.457031 31.296875 75.988281 31.269531 77.210938 32.015625 C 80.300781 33.90625 79.058594 38.554688 79.578125 42.144531 C 80.28125 46.988281 84.640625 50.328125 88.65625 53.128906 C 87.175781 49.667969 87.207031 45.726562 85.835938 42.222656 C 84.261719 38.199219 81.007812 35.109375 77.847656 32.160156 C 85.507812 34.382812 92.253906 39.582031 96.355469 46.414062 C 97.644531 48.5625 98.703125 50.886719 100.441406 52.6875 C 103.96875 56.328125 109.714844 57.214844 113.042969 61.042969 C 110.109375 56.25 107.082031 51.347656 102.65625 47.894531 C 98.550781 44.691406 93.324219 42.800781 90.117188 38.695312 C 93.945312 40.710938 98.65625 40.980469 102.683594 39.40625 C 103.882812 40.96875 105.085938 42.53125 106.285156 44.089844 C 105.367188 45.148438 105.828125 47.175781 107.203125 47.449219 C 108.582031 47.71875 109.660156 45.488281 108.460938 44.757812 C 106.222656 43.40625 104.320312 41.496094 102.984375 39.242188 C 104.210938 38.550781 105.4375 37.851562 106.664062 37.160156 C 109.257812 38.902344 111.25 41.515625 112.246094 44.480469 C 112.128906 42.886719 111.425781 41.34375 110.296875 40.203125 C 114.273438 42.339844 118.769531 45.265625 118.933594 49.773438 C 118.960938 50.535156 120.339844 50.339844 120.472656 49.585938 C 120.609375 48.835938 120.015625 48.167969 119.472656 47.632812 C 118.929688 47.097656 118.335938 46.429688 118.472656 45.679688 C 121.800781 45.949219 124.238281 49.9375 122.953125 53.023438 C 122.539062 54.019531 124.511719 54.496094 125.003906 53.535156 C 125.492188 52.570312 124.878906 51.421875 124.1875 50.589844 C 123.5 49.753906 122.671875 48.863281 122.722656 47.785156 C 125.46875 47.265625 128.164062 49.339844 129.359375 51.867188 C 130.550781 54.394531 130.625 57.289062 130.792969 60.078125 C 130.878906 61.503906 131.125 63.140625 132.34375 63.875 C 133.566406 64.613281 135.578125 63.0625 134.652344 61.976562 C 135.769531 63.035156 136.957031 64.136719 138.449219 64.507812 C 139.941406 64.878906 141.8125 64.226562 142.234375 62.746094 C 144.109375 63.675781 146.421875 61.957031 146.90625 59.921875 C 147.390625 57.882812 146.636719 55.78125 145.890625 53.828125 C 147.949219 52.21875 146.554688 48.546875 144.105469 47.632812 C 141.65625 46.714844 138.941406 47.609375 136.476562 48.484375 C 134.011719 49.359375 131.28125 50.226562 128.851562 49.265625 C 125.734375 48.03125 122.621094 46.796875 119.5 45.5625 C 121.570312 45.492188 123.636719 45.417969 125.703125 45.347656 C 127 45.304688 128.8125 44.335938 128.074219 43.277344 C 127.457031 42.402344 126.125 43.152344 125.253906 43.773438 C 122.171875 45.957031 117.511719 45.503906 114.914062 42.765625 C 115.957031 42.367188 117.042969 43.125 118.109375 43.445312 C 119.179688 43.769531 120.785156 43.046875 120.363281 42.011719 C 118.050781 43.046875 115.289062 42.589844 113.046875 41.414062 C 110.804688 40.242188 108.96875 38.429688 107.171875 36.644531 C 108.832031 35.546875 110.492188 34.449219 112.152344 33.351562 C 106.695312 35.066406 100.421875 33.929688 95.914062 30.40625 C 106.488281 30.550781 116.722656 33.886719 126.769531 37.195312 C 128.058594 37.617188 129.367188 38.050781 130.488281 38.8125 C 134.089844 41.253906 138.441406 42.585938 142.796875 42.558594 C 140.664062 42.054688 138.773438 40.621094 137.699219 38.710938 C 144.28125 40.144531 150.328125 43.933594 154.488281 49.230469 C 155.597656 50.652344 156.609375 52.25 156.789062 54.042969 C 156.96875 55.910156 156.234375 57.730469 155.816406 59.558594 C 155.394531 61.386719 155.386719 63.542969 156.714844 64.875 C 158.664062 59.597656 158.007812 53.429688 154.992188 48.683594 C 159.453125 52.195312 164.820312 55.921875 170.332031 54.539062 C 168.714844 51.847656 164.613281 53.050781 161.570312 52.289062 C 159.921875 51.875 158.519531 50.8125 157.171875 49.78125 C 152.925781 46.527344 148.683594 43.273438 144.4375 40.019531 C 154.242188 44.582031 167.183594 41.066406 175.410156 48.074219 C 172.613281 45.574219 169.191406 43.777344 165.542969 42.902344 C 168.550781 42.695312 171.519531 41.996094 174.3125 40.855469 C 175.144531 41.875 176.167969 42.742188 177.308594 43.398438 C 177.257812 42.867188 177.007812 42.363281 176.621094 41.996094 C 178.472656 42.21875 180.582031 42.285156 181.949219 41.015625 C 183.316406 39.746094 182.742188 36.753906 180.882812 36.84375 C 181.96875 36.308594 183.199219 36.058594 184.414062 36.125 C 185.058594 37.800781 186.882812 38.785156 188.667969 38.964844 C 190.453125 39.144531 192.234375 38.667969 193.960938 38.191406 C 191.921875 34.609375 186.570312 33.476562 183.257812 35.929688 C 183.542969 33.71875 185.875 32.417969 188.015625 31.789062 C 190.152344 31.164062 192.546875 30.738281 193.988281 29.039062 C 191.613281 29.574219 189.242188 30.105469 186.875 30.636719 C 189.144531 28.601562 190.511719 25.589844 190.546875 22.539062 C 187.507812 26.546875 186.84375 32.375 182.714844 35.238281 C 180.886719 36.503906 178.53125 36.980469 176.355469 36.53125 C 173.902344 40.222656 169.429688 42.175781 165.015625 42.632812 C 160.605469 43.085938 156.175781 42.238281 151.820312 41.394531 C 164.945312 42.394531 178.398438 36.179688 186.132812 25.527344 C 187.527344 23.605469 188.902344 21.429688 191.148438 20.648438 C 195.445312 19.144531 197.808594 14.472656 198.695312 10 C 199.242188 7.242188 200.054688 3.699219 202.84375 3.339844 C 199.257812 3.445312 195.609375 4.59375 192.996094 7.050781 C 190.382812 9.503906 188.972656 13.363281 189.949219 16.816406 C 189.480469 10.910156 194.03125 5.035156 199.863281 4.003906 C 199.222656 7.507812 198.5625 11.070312 196.921875 14.230469 C 195.28125 17.394531 192.484375 20.152344 188.996094 20.855469 C 191.128906 14.804688 194.660156 9.273438 199.234375 4.792969 C 191.859375 9.789062 190.183594 19.871094 184.773438 26.941406 C 179.414062 33.945312 170.789062 37.507812 162.476562 40.445312 M 169.832031 54.34375 C 168.722656 54.695312 167.550781 54.820312 166.394531 54.714844 C 164.96875 54.582031 163.542969 54.066406 162.523438 53.066406 C 163.96875 53.601562 165.464844 53.996094 166.984375 54.246094 C 167.054688 54.222656 167.0625 54.121094 167.015625 54.066406 C 166.964844 54.015625 166.890625 53.996094 166.824219 53.984375 C 165.410156 53.710938 164.019531 53.339844 162.660156 52.878906 C 162.710938 52.839844 162.769531 52.808594 162.824219 52.769531 C 165.238281 52.339844 167.824219 52.921875 169.832031 54.34375 M 132.011719 17.503906 C 133.574219 17.902344 135.183594 18.121094 136.792969 18.152344 C 135.542969 17.902344 134.292969 17.65625 133.039062 17.40625 C 132.394531 17.277344 131.722656 17.136719 131.214844 16.714844 C 130.898438 16.445312 130.671875 16.082031 130.476562 15.71875 C 129.972656 14.773438 129.636719 13.738281 129.488281 12.679688 C 129.402344 12.039062 129.382812 11.359375 129.671875 10.78125 C 129.960938 10.203125 130.628906 9.769531 131.25 9.941406 C 131.539062 10.019531 131.777344 10.210938 132.011719 10.394531 C 133.839844 11.847656 135.675781 13.308594 137.285156 15 C 137.371094 14.773438 137.199219 14.542969 137.035156 14.367188 C 135.34375 12.527344 133.507812 10.824219 131.546875 9.277344 C 132.71875 8.707031 134.148438 8.871094 135.3125 9.453125 C 136.476562 10.027344 137.414062 10.976562 138.253906 11.972656 C 138.421875 12.175781 138.59375 12.398438 138.605469 12.660156 C 138.636719 13.808594 139.074219 14.898438 139.34375 16.015625 C 139.667969 17.335938 139.769531 18.707031 139.644531 20.058594 C 140.125 19 140.027344 17.777344 139.855469 16.628906 C 139.738281 15.847656 139.589844 15.066406 139.417969 14.296875 C 139.242188 13.546875 139.050781 12.75 139.316406 12.023438 C 139.710938 13.355469 140.035156 14.710938 140.285156 16.082031 C 140.433594 16.132812 140.492188 15.890625 140.457031 15.738281 C 140.265625 14.773438 140.066406 13.8125 139.875 12.847656 C 139.707031 12.015625 139.539062 11.160156 139.707031 10.332031 C 139.933594 9.210938 140.804688 8.238281 141.894531 7.898438 C 142.988281 7.554688 144.257812 7.855469 145.082031 8.648438 C 145.386719 8.941406 145.636719 9.308594 145.707031 9.722656 C 145.855469 10.566406 145.261719 11.351562 144.664062 11.976562 C 144.066406 12.597656 143.398438 13.277344 143.359375 14.140625 C 144.085938 12.960938 144.980469 11.882812 146 10.945312 C 145.398438 14.355469 141.964844 16.632812 141.011719 19.96875 C 141.28125 20.054688 141.5 19.761719 141.640625 19.515625 C 142.859375 17.378906 145.109375 15.863281 147.550781 15.539062 C 146.535156 16.160156 145.617188 16.929688 144.820312 17.816406 C 145.242188 17.835938 145.582031 17.511719 145.882812 17.222656 C 146.804688 16.335938 147.867188 15.511719 149.125 15.25 C 150.542969 14.957031 152.007812 15.425781 153.316406 16.050781 C 154.183594 16.464844 155.097656 17.050781 155.304688 17.984375 C 155.566406 19.160156 154.578125 20.25 153.523438 20.824219 C 152.042969 21.628906 150.324219 21.859375 148.652344 22.082031 C 150.632812 22.195312 152.636719 21.699219 154.328125 20.671875 C 154.078125 21.773438 153.269531 22.730469 152.222656 23.164062 C 151.183594 23.597656 149.933594 23.5 148.976562 22.910156 C 147.835938 22.207031 146.246094 22.609375 145.140625 21.855469 C 144.640625 21.511719 143.960938 21.628906 143.40625 21.859375 C 142.855469 22.09375 142.332031 22.441406 141.742188 22.550781 C 141.148438 22.664062 140.421875 22.445312 140.226562 21.875 C 140.007812 21.25 139.789062 20.617188 139.417969 20.074219 C 139.046875 19.53125 138.492188 19.074219 137.84375 18.957031 C 137.195312 18.839844 136.453125 19.144531 136.1875 19.75 C 136.066406 20.03125 135.667969 20.011719 135.375 19.925781 C 134.140625 19.574219 133 18.898438 132.101562 17.984375 C 131.972656 17.839844 131.851562 17.601562 132.011719 17.503906 M 98.785156 19.003906 C 99.203125 18.445312 99.652344 17.902344 100.207031 17.476562 C 101.378906 16.558594 102.90625 16.257812 104.367188 15.984375 C 103.863281 17.089844 103.351562 18.195312 102.847656 19.304688 C 103.074219 19.378906 103.261719 19.121094 103.363281 18.898438 C 104.007812 17.480469 104.789062 16.019531 106.121094 15.207031 C 106.933594 14.710938 107.886719 14.503906 108.796875 14.210938 C 110.308594 13.726562 111.738281 12.992188 113.011719 12.050781 C 113.046875 12.160156 113 12.28125 112.949219 12.382812 C 111.179688 16.253906 108.195312 19.472656 104.828125 22.082031 C 101.460938 24.691406 97.703125 26.738281 93.964844 28.777344 C 93.820312 28.851562 93.640625 28.933594 93.5 28.847656 C 96.34375 26.914062 98.613281 24.140625 99.945312 20.96875 C 99.628906 21.015625 99.445312 21.34375 99.300781 21.632812 C 98 24.238281 96.0625 26.519531 93.699219 28.222656 C 94.390625 26.828125 95.089844 25.425781 95.78125 24.03125 C 96.09375 23.40625 96.402344 22.777344 96.742188 22.167969 C 97.34375 21.066406 98.027344 20.007812 98.785156 19.003906 M 97.976562 34.800781 C 95.421875 35.570312 93.496094 38.070312 90.828125 38.265625 C 90.378906 38.300781 89.910156 38.261719 89.507812 38.058594 C 89.203125 37.910156 88.953125 37.683594 88.699219 37.457031 C 85.105469 34.296875 80.757812 32.003906 76.121094 30.820312 C 80.828125 30.339844 85.570312 30.160156 90.296875 30.375 C 90.695312 30.394531 91.09375 30.414062 91.480469 30.523438 C 91.820312 30.625 92.140625 30.792969 92.445312 30.964844 C 94.414062 32.054688 96.269531 33.34375 97.976562 34.800781 M 146.953125 8.136719 C 147.148438 8.167969 147.292969 7.96875 147.390625 7.800781 C 147.777344 7.171875 148.296875 6.617188 148.898438 6.1875 C 149.574219 5.707031 150.425781 5.378906 151.226562 5.582031 C 151.972656 5.769531 152.546875 6.390625 152.871094 7.089844 C 153.191406 7.785156 153.300781 8.554688 153.410156 9.316406 C 153.433594 9.488281 153.417969 9.726562 153.246094 9.765625 C 152.042969 10.035156 150.914062 10.636719 150.019531 11.488281 C 151.175781 10.9375 152.324219 10.390625 153.480469 9.839844 C 153.628906 11.566406 152.753906 13.191406 151.90625 14.699219 C 151.839844 14.816406 151.730469 14.957031 151.59375 14.917969 C 150.667969 14.640625 149.660156 14.648438 148.738281 14.949219 C 148.53125 15.015625 148.324219 15.097656 148.109375 15.136719 C 147.882812 15.175781 147.65625 15.164062 147.425781 15.167969 C 146.25 15.199219 145.125 15.695312 144.175781 16.386719 C 143.230469 17.082031 142.445312 17.96875 141.707031 18.886719 C 141.957031 18.375 142.246094 17.878906 142.570312 17.40625 C 143.285156 16.351562 144.167969 15.417969 144.921875 14.390625 C 145.679688 13.359375 146.320312 12.199219 146.453125 10.933594 C 146.484375 10.65625 146.390625 10.265625 146.113281 10.273438 C 146.226562 9.625 145.9375 8.917969 145.40625 8.527344 C 145.210938 8.386719 145.167969 8.109375 145.242188 7.886719 C 145.316406 7.664062 145.484375 7.488281 145.664062 7.332031 C 146.375 6.722656 147.304688 6.375 148.238281 6.367188 C 147.695312 6.855469 147.253906 7.464844 146.953125 8.136719 M 142.640625 24.1875 C 143.503906 24.558594 143.90625 25.617188 143.769531 26.542969 C 143.628906 27.464844 143.046875 28.269531 142.390625 28.9375 C 141.640625 29.703125 140.742188 30.375 139.695312 30.613281 C 141.210938 29.449219 142.257812 27.683594 142.546875 25.792969 C 142.34375 25.835938 142.261719 26.070312 142.207031 26.269531 C 141.855469 27.527344 141.207031 28.707031 140.328125 29.679688 C 140.039062 30 139.726562 30.296875 139.363281 30.523438 C 138.421875 31.109375 137.25 31.167969 136.140625 31.207031 C 137.894531 29.960938 139.253906 28.160156 139.964844 26.128906 C 139.75 26.148438 139.625 26.378906 139.53125 26.582031 C 138.855469 28.105469 137.832031 29.472656 136.5625 30.554688 C 136.992188 29.539062 136.683594 28.363281 136.195312 27.375 C 135.710938 26.386719 135.046875 25.480469 134.714844 24.429688 C 134.589844 24.039062 134.582031 23.5 134.960938 23.34375 C 135.917969 22.945312 136.753906 22.253906 137.320312 21.382812 C 136.808594 21.78125 136.296875 22.183594 135.789062 22.582031 C 135.5 22.808594 135.164062 23.046875 134.796875 22.996094 C 134.546875 22.792969 134.710938 22.394531 134.886719 22.128906 C 135.1875 21.679688 135.484375 21.234375 135.785156 20.785156 C 136.0625 20.367188 136.347656 19.945312 136.746094 19.640625 C 137.144531 19.335938 137.679688 19.164062 138.15625 19.328125 C 138.875 19.574219 139.152344 20.410156 139.464844 21.097656 C 140.101562 22.460938 141.25 23.585938 142.640625 24.1875 M 95.6875 44.148438 C 96.421875 44.710938 97.3125 45.023438 98.164062 45.394531 C 101.503906 46.84375 104.429688 49.226562 106.53125 52.199219 C 108.242188 54.632812 109.460938 57.496094 111.777344 59.359375 C 110.417969 58.46875 109.058594 57.578125 107.632812 56.804688 C 106.054688 55.953125 104.394531 55.246094 102.875 54.289062 C 101.359375 53.332031 99.964844 52.082031 99.214844 50.449219 C 98.207031 48.257812 97.027344 46.152344 95.6875 44.148438 M 95.707031 36.457031 C 96.964844 35.390625 98.660156 34.992188 100.300781 34.832031 C 103.660156 34.492188 107.097656 34.976562 110.410156 34.296875 C 109.292969 34.851562 108.21875 35.488281 107.203125 36.207031 C 106.644531 36.601562 106.101562 37.023438 105.535156 37.40625 C 101.242188 40.292969 95.449219 40.808594 90.71875 38.714844 C 92.546875 38.445312 94.296875 37.652344 95.707031 36.457031 M 84.503906 45.027344 C 83.628906 41.976562 82.332031 39.042969 80.660156 36.339844 C 82.347656 37.382812 83.742188 38.894531 84.636719 40.664062 C 84.957031 41.304688 85.21875 41.972656 85.476562 42.636719 C 85.699219 43.214844 85.925781 43.792969 86.097656 44.382812 C 86.792969 46.796875 86.605469 49.414062 87.46875 51.765625 C 85.808594 50.582031 84.269531 49.234375 82.878906 47.753906 C 82.378906 47.222656 81.898438 46.671875 81.515625 46.042969 C 80.992188 45.1875 80.679688 44.21875 80.445312 43.242188 C 79.914062 41.015625 79.792969 38.691406 80.097656 36.417969 C 81.753906 38.628906 82.746094 41.246094 83.773438 43.800781 C 83.957031 44.25 84.148438 44.710938 84.503906 45.027344 M 173.816406 23.023438 C 173.84375 22.550781 173.863281 22.066406 173.71875 21.617188 C 173.574219 21.167969 173.261719 20.753906 173.253906 20.269531 C 173.246094 19.761719 173.597656 19.308594 174.011719 19.011719 C 174.425781 18.707031 174.902344 18.507812 175.320312 18.222656 C 176.425781 17.457031 177.011719 16.015625 176.761719 14.699219 C 176.714844 14.441406 176.652344 14.132812 176.832031 13.953125 C 176.886719 14.316406 176.9375 14.6875 176.988281 15.054688 C 177.339844 17.621094 177.589844 20.21875 177.289062 22.789062 C 176.800781 27.058594 174.765625 31.132812 171.644531 34.085938 C 172.527344 32.636719 172.90625 30.886719 172.703125 29.199219 C 172.546875 27.855469 172.03125 26.566406 171.894531 25.222656 C 171.761719 23.875 172.117188 22.335938 173.265625 21.625 C 173.484375 23.636719 173.371094 25.679688 172.949219 27.660156 C 173.078125 27.804688 173.273438 27.554688 173.304688 27.359375 C 173.554688 25.925781 173.722656 24.476562 173.816406 23.023438 M 131.289062 52.097656 C 132.035156 52.503906 132.933594 52.621094 133.757812 52.414062 C 133.390625 51.96875 133.03125 51.53125 132.664062 51.089844 C 133.503906 50.683594 134.503906 50.742188 135.382812 51.039062 C 136.265625 51.339844 137.050781 51.863281 137.824219 52.378906 C 137.933594 52.339844 137.882812 52.175781 137.804688 52.085938 C 137.226562 51.398438 136.476562 50.859375 135.640625 50.527344 C 136.792969 50.25 138.046875 50.425781 139.085938 50.996094 C 140.125 51.570312 140.9375 52.539062 141.324219 53.660156 C 141.449219 54.023438 141.53125 54.414062 141.507812 54.800781 C 141.445312 55.710938 140.804688 56.480469 140.105469 57.0625 C 140.039062 57.121094 139.960938 57.175781 139.871094 57.183594 C 139.789062 57.1875 139.710938 57.136719 139.644531 57.09375 C 138.6875 56.503906 137.726562 55.90625 136.769531 55.316406 C 137.535156 55.910156 138.304688 56.507812 139.070312 57.105469 C 139.300781 57.28125 139.539062 57.472656 139.675781 57.730469 C 139.8125 57.992188 139.820312 58.34375 139.613281 58.550781 C 137.78125 58.503906 136.035156 57.644531 134.652344 56.429688 C 133.265625 55.222656 132.21875 53.683594 131.289062 52.097656 M 134.925781 8.734375 C 134.777344 8.675781 134.613281 8.609375 134.546875 8.460938 C 134.523438 8.402344 134.511719 8.339844 134.507812 8.277344 C 134.417969 7.28125 134.707031 6.25 135.300781 5.441406 C 136.007812 6.148438 136.59375 6.988281 137.011719 7.902344 C 137.097656 8.089844 137.261719 8.320312 137.453125 8.234375 C 137.140625 7.265625 136.617188 6.363281 135.9375 5.605469 C 135.5 5.121094 135.53125 4.34375 135.847656 3.773438 C 136.160156 3.199219 136.6875 2.78125 137.207031 2.390625 C 137.703125 2.019531 138.351562 1.640625 138.902344 1.929688 C 139.167969 2.0625 139.335938 2.328125 139.484375 2.589844 C 140.347656 4.125 140.734375 5.917969 140.597656 7.675781 C 140.90625 7.59375 140.980469 7.199219 140.984375 6.875 C 141 5.792969 140.851562 4.710938 140.554688 3.671875 C 141.253906 3.878906 141.769531 4.484375 142.097656 5.140625 C 142.425781 5.792969 142.601562 6.511719 142.878906 7.183594 C 141.949219 7.402344 141.042969 7.792969 140.339844 8.4375 C 139.636719 9.082031 139.160156 10.003906 139.179688 10.957031 C 139.1875 11.164062 139.210938 11.371094 139.15625 11.570312 C 139.105469 11.765625 138.941406 11.953125 138.734375 11.953125 C 137.851562 10.511719 136.5 9.355469 134.925781 8.734375 M 145.59375 26.589844 C 147.4375 28.847656 150.21875 30.316406 153.121094 30.554688 C 152.457031 30.902344 151.757812 31.183594 151.035156 31.394531 C 150.320312 31.605469 149.527344 31.746094 148.832031 31.480469 C 147.070312 30.8125 146.84375 28.085938 145.089844 27.398438 C 144.859375 27.308594 144.613281 27.257812 144.410156 27.125 C 144.203125 26.988281 144.046875 26.730469 144.128906 26.5 C 144.363281 25.855469 144.132812 25.117188 143.710938 24.574219 C 143.285156 24.035156 142.699219 23.65625 142.121094 23.285156 C 144.535156 24.199219 147.136719 24.601562 149.71875 24.46875 C 150.738281 24.414062 151.710938 25.324219 151.703125 26.34375 C 150.71875 26.171875 149.726562 26 148.738281 25.824219 C 148.117188 25.714844 147.488281 25.605469 146.910156 25.34375 C 146.402344 25.117188 145.894531 24.765625 145.34375 24.851562 C 146.554688 25.53125 147.886719 26.003906 149.257812 26.238281 C 149.859375 26.34375 150.492188 26.40625 151.027344 26.707031 C 151.53125 26.984375 151.90625 27.453125 152.214844 27.9375 C 152.683594 28.664062 153.027344 29.46875 153.238281 30.304688 C 151.558594 30.1875 149.914062 29.632812 148.507812 28.714844 C 147.507812 28.058594 146.621094 27.214844 145.59375 26.589844 M 141.707031 53.078125 C 142.886719 52.757812 144.214844 53.0625 145.140625 53.855469 C 146.0625 54.65625 146.5625 55.921875 146.425781 57.132812 C 145.988281 56.773438 145.550781 56.410156 145.109375 56.050781 C 145.023438 56.03125 144.960938 56.148438 144.984375 56.230469 C 145.011719 56.3125 145.085938 56.367188 145.152344 56.421875 C 145.75 56.894531 146.0625 57.648438 146.15625 58.40625 C 146.246094 59.160156 146.140625 59.921875 146.035156 60.675781 C 145.96875 61.164062 145.886719 61.671875 145.566406 62.042969 C 145.214844 62.449219 144.640625 62.597656 144.105469 62.554688 C 143.570312 62.511719 143.066406 62.304688 142.570312 62.097656 C 142.433594 62.039062 142.28125 61.957031 142.261719 61.8125 C 142.136719 60.613281 141.46875 59.484375 140.480469 58.789062 C 140.144531 58.554688 140.152344 58.023438 140.367188 57.667969 C 140.578125 57.3125 140.929688 57.066406 141.21875 56.773438 C 142.144531 55.816406 142.351562 54.238281 141.707031 53.078125 M 135.269531 38.8125 C 133.796875 36.597656 131.617188 34.859375 129.128906 33.914062 C 130.511719 33.582031 132 34.03125 133.1875 34.824219 C 134.378906 35.621094 135.3125 36.726562 136.203125 37.84375 C 137.09375 38.960938 137.96875 40.105469 139.070312 41.011719 C 139.546875 41.398438 140.066406 41.746094 140.609375 42.03125 C 139.269531 42.191406 137.929688 41.761719 136.644531 41.34375 C 135.296875 40.90625 133.941406 40.457031 132.726562 39.730469 C 131.515625 39.003906 130.441406 37.953125 129.945312 36.628906 C 129.558594 35.601562 128.839844 34.707031 127.917969 34.109375 C 130.84375 34.570312 133.15625 36.742188 135.269531 38.8125 M 136.429688 60.753906 C 136.296875 60.847656 136.402344 61.050781 136.511719 61.171875 C 137.660156 62.460938 138.941406 63.828125 140.644531 64.121094 C 139.789062 64.453125 138.800781 64.28125 137.988281 63.851562 C 137.175781 63.425781 136.511719 62.769531 135.878906 62.101562 C 135.53125 61.734375 135.1875 61.355469 135 60.894531 C 134.242188 59.023438 133.488281 57.152344 132.726562 55.285156 C 134.320312 57.539062 137.015625 58.972656 139.773438 59.035156 C 139.988281 59.039062 140.171875 59.183594 140.332031 59.328125 C 141.074219 60.023438 141.574219 60.96875 141.730469 61.972656 C 141.84375 62.664062 141.644531 63.570312 140.957031 63.714844 C 140.644531 63.78125 140.320312 63.660156 140.03125 63.53125 C 138.636719 62.898438 137.390625 61.941406 136.429688 60.753906 M 135.957031 49.265625 C 136.53125 49.269531 137.105469 49.402344 137.660156 49.269531 C 137.90625 49.210938 138.136719 49.097656 138.382812 49.035156 C 139.304688 48.792969 140.269531 49.25 141.226562 49.253906 C 142.277344 49.261719 143.277344 48.722656 144.328125 48.789062 C 145.304688 48.851562 146.226562 49.511719 146.570312 50.429688 C 146.910156 51.347656 146.621094 52.476562 145.851562 53.082031 C 145.605469 53.273438 145.242188 53.414062 144.992188 53.226562 C 144.175781 52.625 143.128906 52.351562 142.125 52.484375 C 141.761719 52.53125 141.285156 52.582031 141.121094 52.25 C 140.421875 50.832031 138.695312 50.222656 137.117188 50.195312 C 135.539062 50.164062 133.972656 50.570312 132.394531 50.554688 C 133.503906 49.914062 134.675781 49.253906 135.957031 49.265625 M 152.542969 25.128906 C 152.273438 25.335938 151.878906 25.164062 151.628906 24.941406 C 151.378906 24.714844 151.152344 24.414062 150.824219 24.339844 C 152.417969 23.699219 154.046875 22.6875 154.558594 21.046875 C 154.742188 20.453125 155.171875 19.976562 155.476562 19.4375 C 155.785156 18.902344 155.972656 18.210938 155.660156 17.675781 C 155.589844 17.550781 155.785156 17.449219 155.929688 17.441406 C 156.609375 17.398438 157.296875 17.367188 157.964844 17.503906 C 158.636719 17.636719 159.285156 17.960938 159.6875 18.507812 C 160.371094 19.4375 160.15625 20.824219 159.414062 21.710938 C 158.675781 22.597656 157.535156 23.054688 156.398438 23.261719 C 155.261719 23.46875 154.097656 23.460938 152.953125 23.605469 C 152.871094 23.617188 152.757812 23.667969 152.789062 23.746094 C 153.285156 23.761719 153.773438 23.78125 154.269531 23.792969 C 153.6875 24.242188 153.113281 24.683594 152.542969 25.128906 M 131.003906 52.582031 C 131.796875 53.628906 132.253906 54.890625 132.699219 56.128906 C 132.996094 56.957031 133.289062 57.785156 133.589844 58.613281 C 133.886719 59.445312 134.183594 60.28125 134.320312 61.15625 C 134.402344 61.703125 134.417969 62.277344 134.199219 62.785156 C 133.984375 63.289062 133.488281 63.707031 132.933594 63.6875 C 132.082031 63.664062 131.582031 62.722656 131.371094 61.898438 C 130.988281 60.429688 130.921875 58.886719 131.175781 57.390625 C 131.300781 56.644531 131.507812 55.878906 131.320312 55.144531 C 131.195312 55.804688 131.070312 56.46875 130.945312 57.128906 C 130.6875 55.628906 130.707031 54.078125 131.003906 52.582031 M 181.613281 40.257812 C 180.1875 41.183594 178.355469 41.121094 176.667969 40.910156 C 176.019531 40.828125 175.371094 40.726562 174.71875 40.609375 C 176.34375 39.519531 177.984375 38.417969 179.820312 37.738281 C 180.304688 37.558594 180.8125 37.410156 181.324219 37.457031 C 181.835938 37.507812 182.355469 37.789062 182.546875 38.261719 C 182.847656 39.003906 182.28125 39.828125 181.613281 40.257812 M 188.933594 36.246094 C 188.535156 36.160156 188.132812 36.089844 187.734375 36.019531 C 187.0625 35.902344 186.390625 35.789062 185.71875 35.671875 C 187.019531 35.023438 188.578125 34.945312 189.953125 35.414062 C 191.324219 35.878906 192.503906 36.875 193.242188 38.128906 C 191.597656 38.148438 189.964844 38.285156 188.339844 38.550781 C 187.023438 38.765625 185.726562 37.714844 185.328125 36.4375 C 185.3125 36.394531 185.300781 36.347656 185.320312 36.304688 C 185.351562 36.222656 185.464844 36.214844 185.550781 36.226562 C 187.792969 36.46875 190.0625 36.710938 192.167969 37.53125 C 192.257812 37.5625 192.417969 37.550781 192.390625 37.453125 C 191.292969 36.910156 190.125 36.503906 188.933594 36.246094 M 119.929688 34.917969 C 122.214844 33.84375 124.882812 33.609375 127.320312 34.261719 C 127.921875 34.425781 128.410156 34.875 128.765625 35.382812 C 129.121094 35.894531 129.371094 36.46875 129.671875 37.015625 C 129.585938 37.148438 129.386719 37.132812 129.226562 37.097656 C 126.113281 36.441406 123.007812 35.714844 119.929688 34.917969 M 102.589844 34.328125 C 101.148438 34.34375 99.714844 34.480469 98.300781 34.730469 C 96.566406 33.097656 94.628906 31.6875 92.542969 30.546875 C 93.058594 30.429688 93.601562 30.441406 94.117188 30.566406 C 94.523438 30.667969 94.902344 30.839844 95.277344 31.007812 C 97.710938 32.121094 100.148438 33.226562 102.589844 34.328125 M 146.117188 22.523438 C 145.53125 22.742188 144.957031 22.992188 144.402344 23.277344 C 144.941406 23.378906 145.453125 23.023438 145.960938 22.828125 C 146.59375 22.582031 147.316406 22.578125 147.949219 22.808594 C 148.464844 22.996094 148.921875 23.332031 149.433594 23.523438 C 150.09375 23.773438 150.839844 23.785156 151.496094 23.546875 C 150.144531 24.261719 148.53125 24.230469 147.015625 24.058594 C 145.109375 23.84375 143.230469 23.429688 141.410156 22.832031 C 142.207031 22.746094 142.925781 22.292969 143.710938 22.125 C 144.527344 21.949219 145.40625 22.09375 146.117188 22.523438 M 145.019531 30.386719 C 144.320312 29.722656 143.738281 28.808594 143.871094 27.851562 C 143.886719 27.710938 143.925781 27.566406 144.042969 27.484375 C 144.234375 27.351562 144.5 27.480469 144.6875 27.621094 C 145.613281 28.300781 146.371094 29.199219 146.886719 30.222656 C 147.171875 30.792969 147.667969 31.25 148.257812 31.480469 C 148.296875 31.496094 148.34375 31.515625 148.355469 31.558594 C 148.375 31.628906 148.269531 31.667969 148.195312 31.667969 C 147.277344 31.6875 146.347656 31.402344 145.601562 30.871094 C 145.390625 30.726562 145.203125 30.5625 145.019531 30.386719 M 156.816406 57.8125 C 156.832031 57.796875 156.851562 57.785156 156.875 57.777344 C 156.9375 57.769531 156.964844 57.855469 156.964844 57.921875 C 156.96875 58.285156 156.921875 58.640625 156.863281 58.996094 C 156.738281 59.765625 156.554688 60.527344 156.328125 61.269531 C 156.382812 61.320312 156.4375 61.378906 156.488281 61.433594 C 157.023438 60.234375 157.300781 58.917969 157.292969 57.605469 C 157.292969 57.515625 157.394531 57.394531 157.433594 57.476562 C 157.804688 58.253906 157.914062 59.160156 157.746094 60.007812 C 157.683594 60.320312 157.582031 60.628906 157.480469 60.929688 C 157.167969 61.859375 156.824219 62.785156 156.464844 63.699219 C 156.300781 63.175781 156.152344 62.644531 156.023438 62.117188 C 155.816406 61.257812 155.652344 60.359375 155.84375 59.5 C 155.988281 58.851562 156.328125 58.261719 156.816406 57.8125 M 142.527344 48.769531 C 141.929688 48.902344 141.3125 49.042969 140.707031 48.964844 C 140.234375 48.902344 139.789062 48.714844 139.316406 48.671875 C 138.171875 48.566406 136.988281 49.296875 135.917969 48.875 C 137.65625 48.199219 139.511719 47.855469 141.375 47.859375 C 142.378906 47.859375 143.398438 47.964844 144.316406 48.359375 C 143.714844 48.5 143.125 48.632812 142.527344 48.769531 M 186.589844 31.625 C 186.636719 31.527344 186.722656 31.457031 186.8125 31.394531 C 187.105469 31.167969 187.398438 30.941406 187.730469 30.78125 C 188.105469 30.601562 188.519531 30.5 188.929688 30.40625 C 190.078125 30.152344 191.242188 29.9375 192.40625 29.765625 C 191.464844 30.441406 190.484375 31.128906 189.347656 31.355469 C 189.058594 31.414062 188.761719 31.4375 188.464844 31.464844 C 187.839844 31.519531 187.214844 31.570312 186.589844 31.625 M 189.722656 25.398438 C 189.675781 25.738281 189.648438 26.082031 189.570312 26.414062 C 189.316406 27.417969 188.605469 28.238281 187.917969 29.011719 C 187.863281 29.070312 187.78125 29.136719 187.714844 29.09375 C 187.914062 28.203125 188.1875 27.332031 188.535156 26.488281 C 188.898438 25.609375 189.351562 24.753906 190.007812 24.058594 C 189.875 24.496094 189.785156 24.945312 189.722656 25.398438 M 181.859375 40.652344 C 181.230469 41.480469 180.097656 41.683594 179.066406 41.808594 C 178.777344 41.84375 178.488281 41.875 178.199219 41.871094 C 177.632812 41.859375 177.078125 41.695312 176.535156 41.53125 C 176.457031 41.507812 176.382812 41.480469 176.304688 41.457031 C 175.980469 41.363281 175.644531 41.253906 175.402344 41.015625 C 175.972656 41.097656 176.539062 41.175781 177.109375 41.238281 C 178.0625 41.347656 179.027344 41.425781 179.964844 41.242188 C 180.679688 41.101562 181.359375 40.804688 181.945312 40.378906 C 181.972656 40.476562 181.921875 40.578125 181.859375 40.652344 M 176.019531 37.703125 C 176.058594 37.65625 176.113281 37.621094 176.164062 37.589844 C 176.789062 37.203125 177.449219 36.847656 178.171875 36.691406 C 178.59375 36.601562 179.03125 36.582031 179.464844 36.628906 C 179.535156 36.640625 179.613281 36.667969 179.605469 36.738281 C 179.601562 36.789062 179.535156 36.8125 179.480469 36.824219 C 178.25 37.0625 177.09375 37.6875 176.222656 38.59375 C 176.074219 38.75 175.878906 38.925781 175.671875 38.859375 C 175.761719 38.542969 175.84375 38.222656 175.929688 37.910156 C 175.953125 37.839844 175.972656 37.761719 176.019531 37.703125 M 108.582031 46.261719 C 108.613281 46.300781 108.648438 46.34375 108.648438 46.394531 C 108.648438 46.445312 108.617188 46.488281 108.589844 46.527344 C 108.242188 46.992188 107.578125 47.203125 107.027344 47.023438 C 106.757812 46.933594 106.542969 46.695312 106.488281 46.421875 C 106.449219 46.246094 106.488281 46.039062 106.636719 45.949219 C 107.257812 45.59375 108.109375 45.730469 108.582031 46.261719 M 132.894531 52 C 132.898438 52.066406 132.804688 52.085938 132.742188 52.074219 C 132.453125 52.035156 132.167969 51.949219 131.898438 51.835938 C 131.171875 51.523438 130.539062 50.996094 130.09375 50.34375 C 130.0625 50.292969 130.027344 50.238281 130.035156 50.179688 C 130.5625 50.339844 131.085938 50.5 131.609375 50.660156 C 131.714844 50.695312 131.820312 50.722656 131.914062 50.78125 C 132.097656 50.882812 132.226562 51.058594 132.347656 51.226562 C 132.519531 51.464844 132.695312 51.703125 132.867188 51.941406 C 132.882812 51.953125 132.894531 51.972656 132.894531 52 M 155.550781 17.25 C 155.199219 16.738281 154.75 16.289062 154.234375 15.941406 C 155.261719 15.785156 156.347656 16.160156 157.066406 16.910156 C 157.109375 16.960938 157.15625 17.011719 157.167969 17.074219 C 157.175781 17.136719 157.125 17.214844 157.0625 17.210938 C 156.898438 17.195312 156.738281 17.175781 156.574219 17.160156 C 156.339844 17.136719 156.085938 17.113281 155.871094 17.21875 C 155.761719 17.273438 155.617188 17.34375 155.550781 17.25 M 108.203125 45.015625 C 108.316406 45.210938 108.425781 45.410156 108.535156 45.613281 C 108.4375 45.648438 108.328125 45.601562 108.230469 45.5625 C 107.613281 45.304688 106.882812 45.347656 106.300781 45.667969 C 106.226562 45.707031 106.125 45.746094 106.078125 45.679688 C 106.058594 45.65625 106.058594 45.617188 106.058594 45.585938 C 106.054688 45.289062 106.105469 44.957031 106.335938 44.769531 C 106.425781 44.703125 106.53125 44.660156 106.632812 44.621094 C 107.097656 44.453125 107.691406 44.378906 108.023438 44.746094 C 108.097656 44.828125 108.152344 44.921875 108.203125 45.015625 M 175.722656 39.351562 C 176.246094 38.980469 176.757812 38.59375 177.253906 38.183594 C 178.15625 37.4375 179.320312 37.023438 180.496094 37.035156 C 180.578125 37.035156 180.6875 37.0625 180.691406 37.144531 C 180.699219 37.242188 180.5625 37.269531 180.460938 37.269531 C 180.066406 37.269531 179.6875 37.417969 179.328125 37.578125 C 178.230469 38.054688 177.175781 38.628906 176.179688 39.289062 C 176.039062 39.378906 175.84375 39.464844 175.722656 39.351562 M 174.605469 39.941406 C 174.683594 39.746094 174.675781 39.527344 174.691406 39.316406 C 174.71875 38.875 174.835938 38.441406 175.027344 38.039062 C 175.222656 37.644531 175.492188 37.289062 175.761719 36.9375 C 175.8125 36.871094 175.941406 36.824219 175.953125 36.90625 C 175.953125 36.917969 175.953125 36.933594 175.949219 36.949219 C 175.773438 37.570312 175.589844 38.183594 175.398438 38.800781 C 175.257812 39.25 175.109375 39.703125 174.820312 40.066406 C 174.765625 40.140625 174.65625 40.207031 174.59375 40.140625 C 174.542969 40.085938 174.574219 40.007812 174.605469 39.941406 M 129.597656 50.300781 C 129.628906 50.21875 129.746094 50.285156 129.792969 50.355469 C 130.050781 50.761719 130.304688 51.164062 130.566406 51.566406 C 130.625 51.652344 130.679688 51.742188 130.714844 51.839844 C 130.863281 52.234375 130.675781 52.664062 130.492188 53.042969 C 130.113281 52.628906 129.980469 52.054688 129.855469 51.507812 C 129.765625 51.121094 129.679688 50.742188 129.597656 50.355469 C 129.597656 50.34375 129.59375 50.324219 129.597656 50.300781 M 125.050781 52.925781 C 125.074219 53.042969 125.015625 53.222656 124.914062 53.164062 C 124.863281 53.132812 124.867188 53.058594 124.859375 52.996094 C 124.824219 52.738281 124.511719 52.644531 124.261719 52.609375 C 123.972656 52.566406 123.65625 52.527344 123.40625 52.683594 C 123.351562 52.714844 123.285156 52.757812 123.226562 52.730469 C 123.171875 52.707031 123.164062 52.632812 123.167969 52.574219 C 123.1875 52.277344 123.375 51.992188 123.644531 51.863281 C 123.914062 51.730469 124.25 51.753906 124.5 51.917969 C 124.828125 52.128906 124.964844 52.539062 125.050781 52.925781 M 127.191406 44.847656 C 126.996094 45.027344 126.667969 45.015625 126.445312 44.859375 C 126.226562 44.707031 126.105469 44.4375 126.066406 44.171875 C 126.03125 43.960938 126.050781 43.730469 126.179688 43.5625 C 126.3125 43.394531 126.589844 43.335938 126.746094 43.488281 C 126.765625 43.507812 126.78125 43.53125 126.792969 43.554688 C 126.835938 43.644531 126.816406 43.75 126.816406 43.84375 C 126.816406 44.0625 126.933594 44.273438 127.109375 44.398438 C 127.171875 44.441406 127.246094 44.476562 127.277344 44.542969 C 127.332031 44.640625 127.277344 44.769531 127.191406 44.847656 M 123.515625 53.601562 C 123.375 53.4375 123.308594 53.1875 123.433594 53.007812 C 123.554688 52.84375 123.785156 52.816406 123.992188 52.820312 C 124.132812 52.828125 124.269531 52.835938 124.394531 52.890625 C 124.621094 52.980469 124.789062 53.195312 124.824219 53.4375 C 124.832031 53.503906 124.789062 53.570312 124.742188 53.625 C 124.429688 53.960938 123.816406 53.949219 123.515625 53.601562 M 107.539062 34.210938 C 108.015625 34.074219 108.492188 33.945312 108.96875 33.808594 C 109.359375 33.699219 109.773438 33.710938 110.179688 33.71875 C 110.371094 33.722656 110.597656 33.742188 110.703125 33.90625 C 109.6875 34.128906 108.652344 34.277344 107.613281 34.34375 C 107.546875 34.347656 107.449219 34.3125 107.476562 34.253906 C 107.488281 34.222656 107.515625 34.214844 107.539062 34.210938 M 120.242188 49.140625 C 120.261719 49.207031 120.269531 49.277344 120.238281 49.335938 C 120.203125 49.394531 120.113281 49.421875 120.070312 49.375 C 119.765625 49.054688 119.246094 48.972656 118.855469 49.179688 C 118.808594 49.203125 118.75 49.152344 118.742188 49.101562 C 118.734375 49.046875 118.761719 48.996094 118.789062 48.953125 C 118.929688 48.710938 119.105469 48.445312 119.386719 48.421875 C 119.476562 48.414062 119.570312 48.433594 119.648438 48.464844 C 119.9375 48.582031 120.160156 48.839844 120.242188 49.140625 M 127.140625 43.707031 C 127.160156 43.582031 127.207031 43.464844 127.285156 43.363281 C 127.394531 43.21875 127.625 43.332031 127.746094 43.460938 C 127.929688 43.652344 128.078125 43.949219 127.933594 44.175781 C 127.816406 44.359375 127.539062 44.390625 127.359375 44.269531 C 127.1875 44.15625 127.109375 43.921875 127.140625 43.707031 M 174.851562 41.160156 C 174.792969 41.09375 174.746094 40.972656 174.820312 40.929688 C 175.535156 41.390625 176.199219 41.933594 176.792969 42.546875 C 176.851562 42.609375 176.914062 42.679688 176.910156 42.761719 C 176.90625 42.847656 176.78125 42.910156 176.730469 42.84375 C 176.242188 42.15625 175.410156 41.792969 174.851562 41.160156 M 118.914062 49.484375 C 119.179688 49.226562 119.667969 49.253906 119.894531 49.546875 C 119.976562 49.65625 119.882812 49.8125 119.765625 49.886719 C 119.53125 50.035156 119.191406 50.03125 118.980469 49.84375 C 118.878906 49.753906 118.816406 49.582031 118.914062 49.484375 M 119.683594 43.175781 C 119.542969 43.097656 119.519531 42.90625 119.542969 42.753906 C 119.578125 42.511719 119.695312 42.285156 119.855469 42.109375 C 120.027344 42.171875 120.101562 42.367188 120.132812 42.546875 C 120.160156 42.703125 120.171875 42.878906 120.09375 43.023438 C 120.015625 43.160156 119.824219 43.253906 119.683594 43.175781 M 119.234375 43.394531 C 119 43.3125 118.828125 43.070312 118.828125 42.820312 C 118.828125 42.570312 118.996094 42.324219 119.230469 42.242188 C 119.246094 42.238281 119.265625 42.234375 119.28125 42.234375 C 119.335938 42.242188 119.347656 42.320312 119.34375 42.382812 C 119.304688 42.71875 119.269531 43.054688 119.234375 43.394531 M 129.207031 50.042969 C 129.136719 50 129.136719 49.875 129.207031 49.832031 C 129.277344 49.875 129.277344 50 129.207031 50.042969 Z M 129.207031 50.042969 " fill-opacity="1" fill-rule="nonzero"/></g><g fill="#503550" fill-opacity="1"><g transform="translate(8.623702, 98.678679)"><g><path d="M 20.890625 -26.671875 L 20.890625 -25.953125 L 11.890625 -25.953125 L 11.890625 0.046875 L 10.40625 0.046875 L 10.40625 -25.953125 L 1.40625 -25.953125 L 1.40625 -26.671875 Z M 20.890625 -26.671875 "/></g></g></g><g fill="#503550" fill-opacity="1"><g transform="translate(30.920566, 98.678679)"><g><path d="M 19.0625 -26.671875 L 20.59375 -26.671875 L 20.59375 0.046875 L 19.0625 0.046875 L 19.0625 -13.546875 L 3.5625 -13.546875 L 3.5625 0.046875 L 2.03125 0.046875 L 2.03125 -26.671875 L 3.5625 -26.671875 L 3.5625 -14.265625 L 19.0625 -14.265625 Z M 19.0625 -26.671875 "/></g></g></g><g fill="#503550" fill-opacity="1"><g transform="translate(53.727074, 98.678679)"><g><path d="M 15.59375 -25.953125 L 3.5625 -25.953125 L 3.5625 -14.265625 L 14.4375 -14.265625 L 14.4375 -13.546875 L 3.5625 -13.546875 L 3.5625 -0.671875 L 15.59375 -0.671875 L 15.59375 0.046875 L 2.03125 0.046875 L 2.03125 -26.671875 L 15.59375 -26.671875 Z M 15.59375 -25.953125 "/></g></g></g><g fill="#503550" fill-opacity="1"><g transform="translate(71.097394, 98.678679)"><g/></g></g><g fill="#503550" fill-opacity="1"><g transform="translate(81.714953, 98.678679)"><g><path d="M 35.84375 -26.671875 L 36.5625 -26.671875 L 28.234375 0.546875 L 27.984375 0.546875 L 18.984375 -21.609375 L 10.015625 0.546875 L 9.71875 0.546875 L 1.40625 -26.671875 L 2.96875 -26.671875 L 10.453125 -2.375 L 19.359375 -24.328125 L 19.53125 -24.328125 L 28.40625 -2.421875 Z M 35.84375 -26.671875 "/></g></g></g><g fill="#503550" fill-opacity="1"><g transform="translate(119.810734, 98.678679)"><g><path d="M 15.59375 -25.953125 L 3.5625 -25.953125 L 3.5625 -14.265625 L 14.4375 -14.265625 L 14.4375 -13.546875 L 3.5625 -13.546875 L 3.5625 -0.671875 L 15.59375 -0.671875 L 15.59375 0.046875 L 2.03125 0.046875 L 2.03125 -26.671875 L 15.59375 -26.671875 Z M 15.59375 -25.953125 "/></g></g></g><g fill="#503550" fill-opacity="1"><g transform="translate(137.181054, 98.678679)"><g><path d="M 13.078125 -26.671875 C 14.046875 -26.671875 15.128906 -26.582031 16.328125 -26.40625 C 17.535156 -26.238281 18.738281 -25.914062 19.9375 -25.4375 C 21.144531 -24.957031 22.242188 -24.25 23.234375 -23.3125 C 24.222656 -22.375 25.019531 -21.128906 25.625 -19.578125 C 26.238281 -18.023438 26.546875 -16.085938 26.546875 -13.765625 C 26.546875 -11.359375 26.203125 -9.335938 25.515625 -7.703125 C 24.835938 -6.078125 23.945312 -4.757812 22.84375 -3.75 C 21.738281 -2.75 20.554688 -1.976562 19.296875 -1.4375 C 18.035156 -0.90625 16.816406 -0.539062 15.640625 -0.34375 C 14.472656 -0.144531 13.46875 -0.03125 12.625 0 C 11.789062 0.03125 11.265625 0.046875 11.046875 0.046875 L 2.03125 0.046875 L 2.03125 -26.671875 Z M 11 -0.671875 C 12.15625 -0.671875 13.378906 -0.773438 14.671875 -0.984375 C 15.960938 -1.203125 17.222656 -1.582031 18.453125 -2.125 C 19.679688 -2.664062 20.789062 -3.421875 21.78125 -4.390625 C 22.769531 -5.367188 23.5625 -6.625 24.15625 -8.15625 C 24.757812 -9.6875 25.0625 -11.554688 25.0625 -13.765625 C 25.0625 -16.023438 24.75 -17.894531 24.125 -19.375 C 23.5 -20.863281 22.675781 -22.046875 21.65625 -22.921875 C 20.632812 -23.804688 19.515625 -24.460938 18.296875 -24.890625 C 17.085938 -25.316406 15.882812 -25.59375 14.6875 -25.71875 C 13.5 -25.84375 12.425781 -25.90625 11.46875 -25.90625 L 3.5625 -25.90625 L 3.5625 -0.671875 Z M 11 -0.671875 "/></g></g></g><g fill="#503550" fill-opacity="1"><g transform="translate(165.678565, 98.678679)"><g><path d="M 13.078125 -26.671875 C 14.046875 -26.671875 15.128906 -26.582031 16.328125 -26.40625 C 17.535156 -26.238281 18.738281 -25.914062 19.9375 -25.4375 C 21.144531 -24.957031 22.242188 -24.25 23.234375 -23.3125 C 24.222656 -22.375 25.019531 -21.128906 25.625 -19.578125 C 26.238281 -18.023438 26.546875 -16.085938 26.546875 -13.765625 C 26.546875 -11.359375 26.203125 -9.335938 25.515625 -7.703125 C 24.835938 -6.078125 23.945312 -4.757812 22.84375 -3.75 C 21.738281 -2.75 20.554688 -1.976562 19.296875 -1.4375 C 18.035156 -0.90625 16.816406 -0.539062 15.640625 -0.34375 C 14.472656 -0.144531 13.46875 -0.03125 12.625 0 C 11.789062 0.03125 11.265625 0.046875 11.046875 0.046875 L 2.03125 0.046875 L 2.03125 -26.671875 Z M 11 -0.671875 C 12.15625 -0.671875 13.378906 -0.773438 14.671875 -0.984375 C 15.960938 -1.203125 17.222656 -1.582031 18.453125 -2.125 C 19.679688 -2.664062 20.789062 -3.421875 21.78125 -4.390625 C 22.769531 -5.367188 23.5625 -6.625 24.15625 -8.15625 C 24.757812 -9.6875 25.0625 -11.554688 25.0625 -13.765625 C 25.0625 -16.023438 24.75 -17.894531 24.125 -19.375 C 23.5 -20.863281 22.675781 -22.046875 21.65625 -22.921875 C 20.632812 -23.804688 19.515625 -24.460938 18.296875 -24.890625 C 17.085938 -25.316406 15.882812 -25.59375 14.6875 -25.71875 C 13.5 -25.84375 12.425781 -25.90625 11.46875 -25.90625 L 3.5625 -25.90625 L 3.5625 -0.671875 Z M 11 -0.671875 "/></g></g></g><g fill="#503550" fill-opacity="1"><g transform="translate(194.176077, 98.678679)"><g><path d="M 2.46875 0.046875 L 2.46875 -26.671875 L 3.984375 -26.671875 L 3.984375 0.046875 Z M 2.46875 0.046875 "/></g></g></g><g fill="#503550" fill-opacity="1"><g transform="translate(200.758954, 98.678679)"><g><path d="M 23.734375 -26.671875 L 23.734375 0.765625 L 23.5625 0.765625 L 2.765625 -24.125 L 2.765625 0.046875 L 2.03125 0.046875 L 2.03125 -27.1875 L 2.171875 -27.1875 L 23.015625 -2.25 L 23.015625 -26.671875 Z M 23.734375 -26.671875 "/></g></g></g><g fill="#503550" fill-opacity="1"><g transform="translate(226.708245, 98.678679)"><g><path d="M 18 -13.546875 L 24.84375 -13.546875 L 24.84375 -1.4375 C 24.84375 -1.4375 24.46875 -1.253906 23.71875 -0.890625 C 22.96875 -0.523438 21.925781 -0.160156 20.59375 0.203125 C 19.257812 0.578125 17.703125 0.765625 15.921875 0.765625 C 14.847656 0.765625 13.679688 0.644531 12.421875 0.40625 C 11.160156 0.164062 9.898438 -0.265625 8.640625 -0.890625 C 7.378906 -1.515625 6.222656 -2.359375 5.171875 -3.421875 C 4.128906 -4.484375 3.289062 -5.8125 2.65625 -7.40625 C 2.019531 -9.007812 1.703125 -10.941406 1.703125 -13.203125 C 1.703125 -15.671875 2.097656 -17.789062 2.890625 -19.5625 C 3.679688 -21.332031 4.765625 -22.773438 6.140625 -23.890625 C 7.515625 -25.003906 9.078125 -25.832031 10.828125 -26.375 C 12.585938 -26.914062 14.414062 -27.1875 16.3125 -27.1875 C 17.925781 -27.1875 19.316406 -27.097656 20.484375 -26.921875 C 21.660156 -26.753906 22.5625 -26.582031 23.1875 -26.40625 C 23.8125 -26.238281 24.125 -26.15625 24.125 -26.15625 L 24.125 -25.265625 C 24.125 -25.265625 23.816406 -25.363281 23.203125 -25.5625 C 22.597656 -25.757812 21.710938 -25.957031 20.546875 -26.15625 C 19.390625 -26.351562 17.976562 -26.453125 16.3125 -26.453125 C 15.425781 -26.453125 14.410156 -26.347656 13.265625 -26.140625 C 12.117188 -25.929688 10.957031 -25.539062 9.78125 -24.96875 C 8.613281 -24.40625 7.53125 -23.628906 6.53125 -22.640625 C 5.539062 -21.648438 4.742188 -20.378906 4.140625 -18.828125 C 3.535156 -17.285156 3.234375 -15.410156 3.234375 -13.203125 C 3.234375 -10.710938 3.597656 -8.617188 4.328125 -6.921875 C 5.066406 -5.222656 6.054688 -3.859375 7.296875 -2.828125 C 8.546875 -1.796875 9.945312 -1.050781 11.5 -0.59375 C 13.0625 -0.144531 14.664062 0.078125 16.3125 0.078125 C 17.8125 0.078125 19.171875 -0.0976562 20.390625 -0.453125 C 21.609375 -0.804688 22.582031 -1.164062 23.3125 -1.53125 L 23.3125 -12.875 L 18 -12.875 Z M 18 -13.546875 "/></g></g></g><g fill="#503550" fill-opacity="1"><g transform="translate(130.119638, 108.692079)"><g/></g></g><g fill="#503550" fill-opacity="1"><g transform="translate(113.597146, 118.545912)"><g><path d="M 3.625 -0.4375 C 3.6875 -0.4375 3.738281 -0.410156 3.78125 -0.359375 C 3.820312 -0.316406 3.84375 -0.269531 3.84375 -0.21875 C 3.84375 -0.15625 3.820312 -0.101562 3.78125 -0.0625 C 3.738281 -0.0195312 3.6875 0 3.625 0 L 0.921875 0 C 0.859375 0 0.800781 -0.0195312 0.75 -0.0625 C 0.707031 -0.101562 0.6875 -0.15625 0.6875 -0.21875 L 0.6875 -4.953125 C 0.6875 -5.015625 0.707031 -5.066406 0.75 -5.109375 C 0.800781 -5.148438 0.859375 -5.171875 0.921875 -5.171875 L 3.625 -5.171875 C 3.6875 -5.171875 3.738281 -5.148438 3.78125 -5.109375 C 3.820312 -5.066406 3.84375 -5.015625 3.84375 -4.953125 C 3.84375 -4.890625 3.820312 -4.835938 3.78125 -4.796875 C 3.738281 -4.753906 3.6875 -4.734375 3.625 -4.734375 L 1.15625 -4.734375 L 1.15625 -2.875 L 3.296875 -2.875 C 3.359375 -2.875 3.410156 -2.851562 3.453125 -2.8125 C 3.492188 -2.769531 3.515625 -2.71875 3.515625 -2.65625 C 3.515625 -2.59375 3.492188 -2.539062 3.453125 -2.5 C 3.410156 -2.46875 3.359375 -2.453125 3.296875 -2.453125 L 1.15625 -2.453125 L 1.15625 -0.4375 Z M 3.625 -0.4375 "/></g></g></g><g fill="#503550" fill-opacity="1"><g transform="translate(117.794913, 118.545912)"><g><path d="M 2.09375 0.078125 C 1.738281 0.078125 1.421875 0.0195312 1.140625 -0.09375 C 0.867188 -0.21875 0.609375 -0.40625 0.359375 -0.65625 C 0.296875 -0.707031 0.265625 -0.765625 0.265625 -0.828125 C 0.265625 -0.890625 0.285156 -0.945312 0.328125 -1 C 0.378906 -1.050781 0.4375 -1.078125 0.5 -1.078125 C 0.550781 -1.078125 0.601562 -1.050781 0.65625 -1 C 1.039062 -0.570312 1.519531 -0.359375 2.09375 -0.359375 C 2.445312 -0.359375 2.738281 -0.441406 2.96875 -0.609375 C 3.207031 -0.773438 3.328125 -0.992188 3.328125 -1.265625 C 3.328125 -1.484375 3.269531 -1.660156 3.15625 -1.796875 C 3.039062 -1.941406 2.890625 -2.054688 2.703125 -2.140625 C 2.515625 -2.234375 2.273438 -2.328125 1.984375 -2.421875 C 1.671875 -2.515625 1.40625 -2.613281 1.1875 -2.71875 C 0.976562 -2.832031 0.804688 -2.984375 0.671875 -3.171875 C 0.535156 -3.367188 0.46875 -3.613281 0.46875 -3.90625 C 0.46875 -4.164062 0.535156 -4.394531 0.671875 -4.59375 C 0.816406 -4.800781 1.015625 -4.960938 1.265625 -5.078125 C 1.523438 -5.191406 1.820312 -5.25 2.15625 -5.25 C 2.445312 -5.25 2.722656 -5.195312 2.984375 -5.09375 C 3.253906 -4.988281 3.46875 -4.84375 3.625 -4.65625 C 3.695312 -4.570312 3.734375 -4.503906 3.734375 -4.453125 C 3.734375 -4.398438 3.707031 -4.347656 3.65625 -4.296875 C 3.613281 -4.253906 3.5625 -4.234375 3.5 -4.234375 C 3.445312 -4.234375 3.40625 -4.25 3.375 -4.28125 C 3.238281 -4.4375 3.0625 -4.5625 2.84375 -4.65625 C 2.625 -4.757812 2.394531 -4.8125 2.15625 -4.8125 C 1.789062 -4.8125 1.492188 -4.726562 1.265625 -4.5625 C 1.046875 -4.40625 0.9375 -4.191406 0.9375 -3.921875 C 0.9375 -3.628906 1.039062 -3.40625 1.25 -3.25 C 1.46875 -3.101562 1.78125 -2.96875 2.1875 -2.84375 C 2.539062 -2.738281 2.828125 -2.628906 3.046875 -2.515625 C 3.265625 -2.410156 3.441406 -2.257812 3.578125 -2.0625 C 3.722656 -1.863281 3.796875 -1.597656 3.796875 -1.265625 C 3.796875 -1.015625 3.722656 -0.785156 3.578125 -0.578125 C 3.429688 -0.378906 3.226562 -0.21875 2.96875 -0.09375 C 2.71875 0.0195312 2.425781 0.078125 2.09375 0.078125 Z M 2.09375 0.078125 "/></g></g></g><g fill="#503550" fill-opacity="1"><g transform="translate(121.948334, 118.545912)"><g><path d="M 3.984375 -5.171875 C 4.054688 -5.171875 4.113281 -5.148438 4.15625 -5.109375 C 4.195312 -5.078125 4.21875 -5.023438 4.21875 -4.953125 C 4.21875 -4.890625 4.195312 -4.835938 4.15625 -4.796875 C 4.113281 -4.765625 4.054688 -4.75 3.984375 -4.75 L 2.46875 -4.75 L 2.46875 -0.21875 C 2.46875 -0.15625 2.441406 -0.101562 2.390625 -0.0625 C 2.347656 -0.0195312 2.296875 0 2.234375 0 C 2.160156 0 2.101562 -0.0195312 2.0625 -0.0625 C 2.019531 -0.101562 2 -0.15625 2 -0.21875 L 2 -4.75 L 0.46875 -4.75 C 0.40625 -4.75 0.351562 -4.769531 0.3125 -4.8125 C 0.269531 -4.851562 0.25 -4.90625 0.25 -4.96875 C 0.25 -5.03125 0.269531 -5.078125 0.3125 -5.109375 C 0.351562 -5.148438 0.40625 -5.171875 0.46875 -5.171875 Z M 3.984375 -5.171875 "/></g></g></g><g fill="#503550" fill-opacity="1"><g transform="translate(126.41215, 118.545912)"><g/></g></g><g fill="#503550" fill-opacity="1"><g transform="translate(128.429732, 118.545912)"><g><path d="M 0.640625 0 C 0.554688 0 0.492188 -0.0234375 0.453125 -0.078125 C 0.410156 -0.128906 0.390625 -0.195312 0.390625 -0.28125 L 0.390625 -0.4375 C 0.390625 -0.53125 0.410156 -0.597656 0.453125 -0.640625 C 0.492188 -0.691406 0.554688 -0.71875 0.640625 -0.71875 L 0.6875 -0.71875 C 0.78125 -0.71875 0.847656 -0.691406 0.890625 -0.640625 C 0.929688 -0.597656 0.953125 -0.53125 0.953125 -0.4375 L 0.953125 -0.28125 C 0.953125 -0.195312 0.929688 -0.128906 0.890625 -0.078125 C 0.847656 -0.0234375 0.78125 0 0.6875 0 Z M 0.640625 0 "/></g></g></g><g fill="#503550" fill-opacity="1"><g transform="translate(129.767398, 118.545912)"><g/></g></g><g fill="#503550" fill-opacity="1"><g transform="translate(131.78498, 118.545912)"><g><path d="M 3.640625 -0.421875 C 3.703125 -0.421875 3.753906 -0.398438 3.796875 -0.359375 C 3.835938 -0.316406 3.859375 -0.269531 3.859375 -0.21875 C 3.859375 -0.15625 3.835938 -0.101562 3.796875 -0.0625 C 3.753906 -0.0195312 3.703125 0 3.640625 0 L 0.875 0 C 0.800781 0 0.742188 -0.0195312 0.703125 -0.0625 C 0.660156 -0.101562 0.640625 -0.15625 0.640625 -0.21875 C 0.640625 -0.269531 0.65625 -0.320312 0.6875 -0.375 L 2.40625 -2.265625 C 2.675781 -2.554688 2.878906 -2.816406 3.015625 -3.046875 C 3.148438 -3.285156 3.21875 -3.519531 3.21875 -3.75 C 3.21875 -4.082031 3.113281 -4.34375 2.90625 -4.53125 C 2.707031 -4.726562 2.425781 -4.828125 2.0625 -4.828125 C 1.820312 -4.828125 1.609375 -4.769531 1.421875 -4.65625 C 1.234375 -4.539062 1.09375 -4.363281 1 -4.125 C 0.945312 -4.03125 0.882812 -3.984375 0.8125 -3.984375 C 0.75 -3.984375 0.691406 -4.003906 0.640625 -4.046875 C 0.597656 -4.085938 0.578125 -4.132812 0.578125 -4.1875 C 0.578125 -4.21875 0.585938 -4.25 0.609375 -4.28125 C 0.628906 -4.320312 0.65625 -4.363281 0.6875 -4.40625 C 0.8125 -4.664062 1 -4.867188 1.25 -5.015625 C 1.507812 -5.171875 1.789062 -5.25 2.09375 -5.25 C 2.59375 -5.25 2.984375 -5.113281 3.265625 -4.84375 C 3.546875 -4.570312 3.6875 -4.21875 3.6875 -3.78125 C 3.6875 -3.507812 3.613281 -3.226562 3.46875 -2.9375 C 3.320312 -2.65625 3.078125 -2.328125 2.734375 -1.953125 L 1.375 -0.421875 Z M 3.640625 -0.421875 "/></g></g></g><g fill="#503550" fill-opacity="1"><g transform="translate(135.975351, 118.545912)"><g><path d="M 2.1875 0.078125 C 1.800781 0.078125 1.472656 -0.0351562 1.203125 -0.265625 C 0.941406 -0.503906 0.742188 -0.820312 0.609375 -1.21875 C 0.472656 -1.625 0.40625 -2.082031 0.40625 -2.59375 C 0.40625 -3.101562 0.472656 -3.554688 0.609375 -3.953125 C 0.742188 -4.347656 0.941406 -4.660156 1.203125 -4.890625 C 1.472656 -5.128906 1.800781 -5.25 2.1875 -5.25 C 2.582031 -5.25 2.910156 -5.132812 3.171875 -4.90625 C 3.441406 -4.675781 3.644531 -4.359375 3.78125 -3.953125 C 3.914062 -3.554688 3.984375 -3.101562 3.984375 -2.59375 C 3.984375 -2.082031 3.914062 -1.625 3.78125 -1.21875 C 3.644531 -0.820312 3.441406 -0.503906 3.171875 -0.265625 C 2.910156 -0.0351562 2.582031 0.078125 2.1875 0.078125 Z M 2.1875 -0.390625 C 2.613281 -0.390625 2.941406 -0.585938 3.171875 -0.984375 C 3.398438 -1.378906 3.515625 -1.914062 3.515625 -2.59375 C 3.515625 -3.269531 3.398438 -3.804688 3.171875 -4.203125 C 2.941406 -4.597656 2.613281 -4.796875 2.1875 -4.796875 C 1.769531 -4.796875 1.445312 -4.597656 1.21875 -4.203125 C 0.988281 -3.804688 0.875 -3.269531 0.875 -2.59375 C 0.875 -1.914062 0.988281 -1.378906 1.21875 -0.984375 C 1.445312 -0.585938 1.769531 -0.390625 2.1875 -0.390625 Z M 2.1875 -0.390625 "/></g></g></g><g fill="#503550" fill-opacity="1"><g transform="translate(140.372652, 118.545912)"><g><path d="M 3.640625 -0.421875 C 3.703125 -0.421875 3.753906 -0.398438 3.796875 -0.359375 C 3.835938 -0.316406 3.859375 -0.269531 3.859375 -0.21875 C 3.859375 -0.15625 3.835938 -0.101562 3.796875 -0.0625 C 3.753906 -0.0195312 3.703125 0 3.640625 0 L 0.875 0 C 0.800781 0 0.742188 -0.0195312 0.703125 -0.0625 C 0.660156 -0.101562 0.640625 -0.15625 0.640625 -0.21875 C 0.640625 -0.269531 0.65625 -0.320312 0.6875 -0.375 L 2.40625 -2.265625 C 2.675781 -2.554688 2.878906 -2.816406 3.015625 -3.046875 C 3.148438 -3.285156 3.21875 -3.519531 3.21875 -3.75 C 3.21875 -4.082031 3.113281 -4.34375 2.90625 -4.53125 C 2.707031 -4.726562 2.425781 -4.828125 2.0625 -4.828125 C 1.820312 -4.828125 1.609375 -4.769531 1.421875 -4.65625 C 1.234375 -4.539062 1.09375 -4.363281 1 -4.125 C 0.945312 -4.03125 0.882812 -3.984375 0.8125 -3.984375 C 0.75 -3.984375 0.691406 -4.003906 0.640625 -4.046875 C 0.597656 -4.085938 0.578125 -4.132812 0.578125 -4.1875 C 0.578125 -4.21875 0.585938 -4.25 0.609375 -4.28125 C 0.628906 -4.320312 0.65625 -4.363281 0.6875 -4.40625 C 0.8125 -4.664062 1 -4.867188 1.25 -5.015625 C 1.507812 -5.171875 1.789062 -5.25 2.09375 -5.25 C 2.59375 -5.25 2.984375 -5.113281 3.265625 -4.84375 C 3.546875 -4.570312 3.6875 -4.21875 3.6875 -3.78125 C 3.6875 -3.507812 3.613281 -3.226562 3.46875 -2.9375 C 3.320312 -2.65625 3.078125 -2.328125 2.734375 -1.953125 L 1.375 -0.421875 Z M 3.640625 -0.421875 "/></g></g></g><g fill="#503550" fill-opacity="1"><g transform="translate(144.563023, 118.545912)"><g><path d="M 3.578125 -2.015625 C 3.640625 -2.015625 3.691406 -1.992188 3.734375 -1.953125 C 3.773438 -1.910156 3.796875 -1.859375 3.796875 -1.796875 C 3.796875 -1.742188 3.773438 -1.695312 3.734375 -1.65625 C 3.691406 -1.613281 3.640625 -1.59375 3.578125 -1.59375 L 3.09375 -1.59375 L 3.09375 -0.21875 C 3.09375 -0.15625 3.066406 -0.101562 3.015625 -0.0625 C 2.972656 -0.0195312 2.921875 0 2.859375 0 C 2.796875 0 2.742188 -0.0195312 2.703125 -0.0625 C 2.660156 -0.101562 2.640625 -0.15625 2.640625 -0.21875 L 2.640625 -1.59375 L 0.46875 -1.59375 C 0.414062 -1.59375 0.363281 -1.613281 0.3125 -1.65625 C 0.269531 -1.707031 0.25 -1.765625 0.25 -1.828125 C 0.25 -1.890625 0.265625 -1.9375 0.296875 -1.96875 L 2.6875 -5.078125 C 2.71875 -5.140625 2.78125 -5.171875 2.875 -5.171875 C 2.9375 -5.171875 2.988281 -5.148438 3.03125 -5.109375 C 3.070312 -5.066406 3.09375 -5.015625 3.09375 -4.953125 L 3.09375 -2.015625 Z M 0.859375 -2.015625 L 2.640625 -2.015625 L 2.640625 -4.375 Z M 0.859375 -2.015625 "/></g></g></g></svg>